HIERARCHY
ROOT Hips
{
	OFFSET 0.00000 0.00000 0.00000
	CHANNELS 6 Xposition Yposition Zposition Zrotation Yrotation Xrotation 
	JOINT LHipJoint
	{
		OFFSET 0 0 0
		CHANNELS 3 Zrotation Yrotation Xrotation
		JOINT LeftHip
		{
			OFFSET 1.56857 -1.73443 1.15205
			CHANNELS 3 Zrotation Yrotation Xrotation
			JOINT LeftKnee
			{
				OFFSET 2.39362 -6.57643 0.00000
				CHANNELS 3 Zrotation Yrotation Xrotation
				JOINT LeftAnkle
				{
					OFFSET 2.50952 -6.89485 0.00000
					CHANNELS 3 Zrotation Yrotation Xrotation
					JOINT LeftToe
					{
						OFFSET 0.17171 -0.47178 1.88682
						CHANNELS 3 Zrotation Yrotation Xrotation
						End Site
						{
							OFFSET 0.00000 -0.00000 0.98146
						}
					}
				}
			}
		}
	}
	JOINT RHipJoint
	{
		OFFSET 0 0 0
		CHANNELS 3 Zrotation Yrotation Xrotation
		JOINT RightHip
		{
			OFFSET -1.28153 -1.73443 1.15205
			CHANNELS 3 Zrotation Yrotation Xrotation
			JOINT RightKnee
			{
				OFFSET -2.26861 -6.23296 0.00000
				CHANNELS 3 Zrotation Yrotation Xrotation
				JOINT RightAnkle
				{
					OFFSET -2.54143 -6.98254 0.00000
					CHANNELS 3 Zrotation Yrotation Xrotation
					JOINT RightToe
					{
						OFFSET -0.23309 -0.64041 1.93119
						CHANNELS 3 Zrotation Yrotation Xrotation
						End Site
						{
							OFFSET -0.00000 -0.00000 1.02013
						}
					}
				}
			}
		}
	}
	JOINT lowerback
	{
		OFFSET 0 0 0
		CHANNELS 3 Zrotation Yrotation Xrotation
		JOINT Chest
		{
			OFFSET -0.07096 2.10460 -0.27878
			CHANNELS 3 Zrotation Yrotation Xrotation
			JOINT Chest2
			{
				OFFSET -0.00826 2.13662 -0.08279
				CHANNELS 3 Zrotation Yrotation Xrotation
				JOINT lowerneck
				{
					OFFSET 0 0 0
					CHANNELS 3 Zrotation Yrotation Xrotation
					JOINT Neck
					{
						OFFSET 0.03239 1.77799 0.24435
						CHANNELS 3 Zrotation Yrotation Xrotation
						JOINT Head
						{
							OFFSET 0.01026 1.74194 -0.49664
							CHANNELS 3 Zrotation Yrotation Xrotation
							End Site
							{
								OFFSET 0.00170 1.83057 -0.19653
							}
						}
					}
				}
				JOINT LeftCollar
				{
					OFFSET 0 0 0
					CHANNELS 3 Zrotation Yrotation Xrotation
					JOINT LeftShoulder
					{
						OFFSET 3.19178 1.35907 -0.31412
CHANNELS 3 Zrotation Xrotation Yrotation
						JOINT LeftElbow
						{
OFFSET 0 -4.852470 -0.000000
CHANNELS 3 Zrotation Xrotation Yrotation
							JOINT LeftWrist
							{
OFFSET 0 -3.555840 0.000000
CHANNELS 3 Zrotation Xrotation Yrotation
								JOINT lhand
								{
									OFFSET 0 0 0
CHANNELS 3 Zrotation Xrotation Yrotation
									JOINT LFingers
									{
OFFSET 0 -0.693200 0.000000
CHANNELS 3 Zrotation Xrotation Yrotation
										End Site
										{
OFFSET 0 -0.558880 0.000000
										}
									}
								}
								JOINT LThumb
								{
OFFSET 0 0.000000 0.000000
CHANNELS 3 Zrotation Xrotation Yrotation
									End Site
									{
OFFSET 0 -0.567410 0.567410
									}
								}
							}
						}
					}
				}
				JOINT RightCollar
				{
					OFFSET 0 0 0
					CHANNELS 3 Zrotation Yrotation Xrotation
					JOINT RightShoulder
					{
						OFFSET -3.28999 1.24191 -0.26899
CHANNELS 3 Zrotation Xrotation Yrotation
						JOINT RightElbow
						{
OFFSET 0 -4.644620 0.000000
CHANNELS 3 Zrotation Xrotation Yrotation
							JOINT RightWrist
							{
OFFSET 0 -3.407030 0.000000
CHANNELS 3 Zrotation Xrotation Yrotation
								JOINT rhand
								{
									OFFSET 0 0 0
CHANNELS 3 Zrotation Xrotation Yrotation
									JOINT RFingers
									{
OFFSET 0 -0.619580 0.000000
CHANNELS 3 Zrotation Xrotation Yrotation
										End Site
										{
OFFSET 0 -0.499520 0.000000
										}
									}
								}
								JOINT RThumb
								{
OFFSET 0 0.000000 0.000000
CHANNELS 3 Zrotation Xrotation Yrotation
									End Site
									{
OFFSET 0 -0.507150 0.507150
									}
								}
							}
						}
					}
				}
			}
		}
	}
}
MOTION
Frames: 9
Frame Time: 0.008333333333333333
47.155320 16.321239 -5.113932 -368.896533 196.304973 -357.719741 0.000000 0.000000 0.000000 -38.604128 -2.471006 13.961908 0.755878 5.552596 15.491749 1.300659 -11.134037 -20.693266 0.342583 3.738683 10.345074 0.000000 0.000000 0.000000 -2.223891 8.255384 -24.206218 -0.307477 -3.564633 9.854965 0.251034 13.547678 -6.011004 -0.030979 1.052709 -2.894496 -11.303230 1.139464 4.514024 -2.968741 0.682419 7.424112 3.150303 -0.513557 5.168093 8.095385 6.575781 -18.469124 -2.141063 6.703245 25.772170 -1.138875 3.294267 11.899913 0.000000 0.000000 0.000000 4.656293 -21.045442 -53.844036 19.758490 -30.349877 5.408978 22.461837 -12.881924 25.446960 0.000000 0.000000 0.000000 -7.125000 0.000000 0.000000 -4.359882 2.804307 -4.153726 0.000000 0.000000 0.000000 -7.957984 5.802530 30.652504 -15.075086 -24.250531 -3.256754 -10.466673 2.045687 35.115114 0.000000 0.000000 0.000000 7.125000 0.000000 0.000000 28.126680 63.375861 -13.059175
47.120687 16.218039 -5.652216 -369.302710 198.328638 -357.769341 0.000000 0.000000 0.000000 -38.531617 -2.287615 15.743779 0.928867 6.139336 17.189405 1.547157 -10.674182 -22.410024 0.029534 -0.419098 -1.153279 0.000000 0.000000 0.000000 -2.671337 11.146246 -22.360336 -0.416310 -4.139712 11.470200 0.191712 10.330326 -3.506138 -0.045864 -1.310776 3.605282 -11.614924 1.109682 4.703166 -2.717260 0.610893 7.742068 3.580240 -0.604973 5.421408 8.413593 6.703421 -18.320480 -2.082681 6.803827 25.510418 -1.154211 3.389838 11.788275 0.000000 0.000000 0.000000 3.570158 -20.175631 -53.333285 20.395079 -31.115343 5.734076 22.753809 -13.772693 25.977017 0.000000 0.000000 0.000000 -7.125000 0.000000 0.000000 -4.245766 2.196350 -4.091109 0.000000 0.000000 0.000000 -8.231177 4.440320 30.796204 -14.547610 -23.512119 -3.043176 -10.496838 3.507414 34.941358 0.000000 0.000000 0.000000 7.125000 0.000000 0.000000 27.906051 63.233704 -12.855799
47.087923 16.147492 -6.181275 -368.484840 200.545962 -358.039125 0.000000 0.000000 0.000000 -37.006821 -2.589899 17.109321 1.185777 6.909964 19.449019 1.632458 -11.638436 -23.108111 0.087101 -1.886421 -5.192436 0.000000 0.000000 0.000000 -2.079643 14.391286 -21.865812 -0.746038 -5.512767 15.378155 0.124370 6.249376 2.038042 -0.573375 -4.849173 13.478988 -10.514495 0.959402 5.107529 -2.107112 0.405806 7.944045 3.618732 -0.654934 5.420999 8.143879 6.879420 -17.906951 -1.587851 7.053823 25.115331 -0.898912 3.552430 11.537307 0.000000 0.000000 0.000000 2.526321 -18.663425 -53.055303 20.838510 -31.639062 5.965175 23.406929 -14.875126 26.290921 0.000000 0.000000 0.000000 -7.125000 0.000000 0.000000 -3.891269 1.741794 -3.779986 0.000000 0.000000 0.000000 -8.779326 2.956946 31.642625 -14.189328 -23.004565 -2.901817 -10.627706 4.605856 34.986781 0.000000 0.000000 0.000000 7.125000 0.000000 0.000000 27.816695 63.307260 -12.859148
47.040410 16.146926 -6.712588 -366.135354 202.236384 -359.325367 0.000000 0.000000 0.000000 -33.795900 -2.646650 18.672049 1.462598 7.642612 21.634125 1.486124 -12.415452 -22.219039 0.123475 -2.240675 -6.172003 0.000000 0.000000 0.000000 1.236981 15.266683 -22.333279 -1.444229 -7.594595 21.490513 0.021072 4.050959 -1.806874 -0.090397 -1.786030 4.920357 -7.800359 1.207515 5.868870 -1.356973 0.715014 8.296661 2.898129 -0.370650 5.295063 9.069536 7.005939 -17.637905 -1.852325 7.057714 24.989207 -1.150532 3.616383 11.494468 0.000000 0.000000 0.000000 1.918014 -17.152879 -53.100193 20.323730 -31.030303 5.697373 24.136585 -14.773146 26.687350 0.000000 0.000000 0.000000 -7.125000 0.000000 0.000000 -3.505694 1.180030 -3.439285 0.000000 0.000000 0.000000 -8.408738 0.924680 30.671981 -13.634857 -22.210311 -2.688546 -10.814193 6.829550 34.889807 0.000000 0.000000 0.000000 7.125000 0.000000 0.000000 27.514720 63.272115 -12.685936
46.959662 16.175542 -7.228455 -365.499382 203.862406 -360.622504 0.000000 0.000000 0.000000 -32.796798 -2.817743 20.075878 1.970621 8.801199 25.177639 1.121645 -12.518764 -19.604053 0.060075 -1.266367 -3.486827 0.000000 0.000000 0.000000 3.050270 14.455319 -21.090435 -2.015616 -8.898012 25.477104 -0.020505 4.960253 -4.124947 -0.024535 -0.993028 2.729769 -6.924412 1.203317 7.030823 -0.722070 0.541848 8.942118 3.067450 -0.484554 5.344238 9.760207 7.570631 -17.410616 -2.546990 7.880270 25.100198 -1.385727 3.973002 11.611314 0.000000 0.000000 0.000000 0.849420 -15.652508 -51.388346 18.860451 -29.243819 4.963068 24.319130 -13.827887 27.480326 0.000000 0.000000 0.000000 -7.125000 0.000000 0.000000 -3.505057 0.312009 -3.492406 0.000000 0.000000 0.000000 -8.820515 -2.143573 30.469983 -13.128714 -21.475447 -2.500244 -11.640544 9.606179 35.059915 0.000000 0.000000 0.000000 7.125000 0.000000 0.000000 26.822251 63.637662 -12.573307
46.890628 16.234593 -7.769341 -363.978992 205.621923 -361.795195 0.000000 0.000000 0.000000 -29.362897 -2.035268 18.748588 2.895550 10.519949 30.681510 0.450710 -12.460418 -13.817736 0.066263 -0.736151 -2.024610 0.000000 0.000000 0.000000 6.124162 13.955859 -18.357460 -2.213953 -9.298146 26.732627 -0.141929 5.012650 -7.069126 -0.023174 0.982817 -2.701504 -5.982177 0.902924 7.132920 0.284430 0.075076 9.603743 3.600671 -0.764088 6.045454 10.184575 8.172316 -17.675331 -2.532872 8.555202 25.782207 -1.320255 4.312944 12.002028 0.000000 0.000000 0.000000 -0.427990 -14.457080 -48.533404 16.556849 -26.268076 3.890131 24.296300 -10.836286 26.665282 0.000000 0.000000 0.000000 -7.125000 0.000000 0.000000 -3.407337 1.170291 -3.343053 0.000000 0.000000 0.000000 -9.636208 -5.596625 32.032969 -13.030114 -21.331315 -2.464210 -12.032668 10.698590 35.137561 0.000000 0.000000 0.000000 7.125000 0.000000 0.000000 26.484759 63.810403 -12.508913
46.846760 16.303565 -8.271427 -362.712225 208.518639 -362.031047 0.000000 0.000000 0.000000 -25.777522 -2.524391 14.873565 4.488529 12.782226 38.560862 -0.133801 -11.438504 -5.875017 0.084681 1.865852 5.135277 0.000000 0.000000 0.000000 8.260727 12.230410 -16.368525 -2.242235 -9.353352 26.906954 -0.304532 4.714687 -9.866090 -0.034627 1.199081 -3.296900 -5.461534 0.400828 6.837492 1.241740 -0.604582 9.843749 4.325553 -1.130438 6.557797 10.374126 8.420109 -18.036398 -2.032658 8.622796 26.605638 -1.132164 4.414602 12.394293 0.000000 0.000000 0.000000 -1.224134 -13.716055 -47.235389 13.897753 -22.587562 2.789182 23.356254 -8.317557 25.581404 0.000000 0.000000 0.000000 -7.125000 0.000000 0.000000 -3.833988 2.493586 -3.671739 0.000000 0.000000 0.000000 -10.068166 -8.977571 32.199329 -13.013035 -21.306286 -2.458012 -12.759141 12.412834 34.441367 0.000000 0.000000 0.000000 7.125000 0.000000 0.000000 24.966201 63.388659 -11.500237
46.795220 16.370004 -8.735328 -360.890481 211.447669 -362.360240 0.000000 0.000000 0.000000 -22.342431 -4.074634 10.379515 6.294408 14.704768 46.146653 -0.218060 -8.354040 1.999049 0.409963 4.105999 11.375693 0.000000 0.000000 0.000000 10.619262 10.022768 -14.824221 -2.189091 -9.249406 26.578550 -0.474377 4.529246 -12.251154 -0.043219 1.341668 -3.689344 -3.975118 -0.046453 6.715312 2.021877 -1.169882 9.751922 4.319336 -1.328832 6.571489 10.335006 8.470870 -18.398948 -1.258006 8.404371 27.071227 -0.853338 4.409288 12.602376 0.000000 0.000000 0.000000 -1.481049 -13.517238 -45.619080 10.911833 -18.150822 1.750074 20.266148 -3.012458 25.107923 0.000000 0.000000 0.000000 -7.125000 0.000000 0.000000 -5.660375 3.546592 -5.323735 0.000000 0.000000 0.000000 -10.406194 -11.613031 33.152769 -13.570915 -22.117800 -2.664569 -13.482732 12.557751 34.233907 0.000000 0.000000 0.000000 7.125000 0.000000 0.000000 23.970680 63.394452 -11.015278
46.734646 16.435911 -9.146936 -358.470584 214.533883 -363.352244 0.000000 0.000000 0.000000 -18.829542 -5.667094 6.058958 8.094348 16.186245 52.898546 -0.127385 -6.498441 4.015275 0.035305 1.189061 3.269471 0.000000 0.000000 0.000000 13.297853 7.551077 -13.308363 -2.127862 -9.127312 26.194548 -0.639278 4.452077 -14.250600 -0.009241 0.616352 -1.693759 -2.203530 -0.452070 7.208815 3.059463 -1.711867 9.486013 4.437139 -1.505194 6.041739 10.571447 8.427649 -18.817277 -1.113093 8.179686 27.277492 -0.855842 4.355837 12.764732 0.000000 0.000000 0.000000 -1.992895 -13.281504 -40.052547 8.589582 -14.503264 1.095820 13.127250 11.327022 24.153785 0.000000 0.000000 0.000000 -7.125000 0.000000 0.000000 -9.965992 5.566123 -9.090807 0.000000 0.000000 0.000000 -11.248757 -13.754791 34.137832 -14.430121 -23.346026 -2.996572 -14.562169 11.557912 34.007309 0.000000 0.000000 0.000000 7.125000 0.000000 0.000000 22.568062 63.473830 -10.378975
